HIERARCHY
ROOT Hips
{
	OFFSET 0.000000 71.427986 0.000000
	CHANNELS 6 Xposition Yposition Zposition Xrotation Yrotation Zrotation
	JOINT Pelvis
	{
		OFFSET 0.000000 0.000000 0.000000
		CHANNELS 3 Xrotation Yrotation Zrotation
		JOINT LeftUpLeg
		{
			OFFSET 6.797100 -2.508499 -1.318700
			CHANNELS 3 Xrotation Yrotation Zrotation
			JOINT LeftLeg
			{
				OFFSET 0.069008 -29.241863 0.690200
				CHANNELS 3 Xrotation Yrotation Zrotation
				JOINT LeftFoot
				{
					OFFSET -0.069008 -29.568123 -0.266800
					CHANNELS 3 Xrotation Yrotation Zrotation
					JOINT LeftToeBase
					{
						OFFSET 3.145500 -8.631000 16.059900
						CHANNELS 3 Xrotation Yrotation Zrotation
						End Site
						{
							OFFSET 0.000000 18.501587 0.000000
						}
					}
				}
			}
			JOINT Left_ShortSleeve
			{
				OFFSET 0.265923 -10.480953 1.153800
				CHANNELS 3 Xrotation Yrotation Zrotation
				End Site
				{
					OFFSET 1.725763 19.823879 0.000000
				}
			}
		}
		JOINT RightUpLeg
		{
			OFFSET -6.797100 -2.508499 -1.318700
			CHANNELS 3 Xrotation Yrotation Zrotation
			JOINT RightLeg
			{
				OFFSET -0.082453 -29.241932 0.688000
				CHANNELS 3 Xrotation Yrotation Zrotation
				JOINT RightFoot
				{
					OFFSET 0.082453 -29.568058 -0.264600
					CHANNELS 3 Xrotation Yrotation Zrotation
					JOINT RightToeBase
					{
						OFFSET -3.115300 -8.682800 16.113400
						CHANNELS 3 Xrotation Yrotation Zrotation
						End Site
						{
							OFFSET 0.000000 18.567114 0.000000
						}
					}
				}
			}
			JOINT Right_ShortSleeve
			{
				OFFSET -0.265923 -10.480953 1.153800
				CHANNELS 3 Xrotation Yrotation Zrotation
				End Site
				{
					OFFSET -1.725766 19.823910 0.000000
				}
			}
		}
	}
	JOINT Spine
	{
		OFFSET 0.000000 13.368103 0.470500
		CHANNELS 3 Xrotation Yrotation Zrotation
		JOINT Spine1
		{
			OFFSET 0.147000 13.837402 0.538800
			CHANNELS 3 Xrotation Yrotation Zrotation
			JOINT Spine2
			{
				OFFSET 0.168000 16.242897 -1.435500
				CHANNELS 3 Xrotation Yrotation Zrotation
				JOINT Neck
				{
					OFFSET 0.217200 18.631500 -1.679100
					CHANNELS 3 Xrotation Yrotation Zrotation
					JOINT Head
					{
						OFFSET 0.000000 6.599396 1.385900
						CHANNELS 3 Xrotation Yrotation Zrotation
						JOINT Hat
						{
							OFFSET -0.532200 27.220596 -10.096100
							CHANNELS 3 Xrotation Yrotation Zrotation
							End Site
							{
								OFFSET 0.000000 22.029861 0.000000
							}
						}
						JOINT HairD
						{
							OFFSET -10.777400 17.437393 -1.325900
							CHANNELS 3 Xrotation Yrotation Zrotation
							JOINT HairD1
							{
								OFFSET -3.290299 -11.051193 1.062200
								CHANNELS 3 Xrotation Yrotation Zrotation
								End Site
								{
									OFFSET 0.000000 11.579437 0.000000
								}
							}
						}
						JOINT HairB
						{
							OFFSET -10.777400 17.437393 1.467900
							CHANNELS 3 Xrotation Yrotation Zrotation
							JOINT HairB1
							{
								OFFSET -1.561200 -12.956299 3.590200
								CHANNELS 3 Xrotation Yrotation Zrotation
								End Site
								{
									OFFSET 0.000000 13.534866 0.000000
								}
							}
						}
						JOINT HairA
						{
							OFFSET 9.713100 17.437393 1.467900
							CHANNELS 3 Xrotation Yrotation Zrotation
							JOINT HairA1
							{
								OFFSET 1.561200 -12.956299 3.590200
								CHANNELS 3 Xrotation Yrotation Zrotation
								End Site
								{
									OFFSET 0.000000 13.534866 0.000000
								}
							}
						}
						JOINT HairC
						{
							OFFSET 9.713100 17.437393 -1.325900
							CHANNELS 3 Xrotation Yrotation Zrotation
							JOINT HairC1
							{
								OFFSET 3.290300 -11.051193 1.062200
								CHANNELS 3 Xrotation Yrotation Zrotation
								End Site
								{
									OFFSET 0.000000 11.579437 0.000000
								}
							}
						}
					}
				}
				JOINT LeftShoulder
				{
					OFFSET 5.101800 15.108002 -2.763700
					CHANNELS 3 Xrotation Yrotation Zrotation
					JOINT LeftArm
					{
						OFFSET 9.825497 2.506317 -1.597400
						CHANNELS 3 Xrotation Yrotation Zrotation
						JOINT LeftForeArm
						{
							OFFSET 21.966244 0.000000 0.000000
							CHANNELS 3 Xrotation Yrotation Zrotation
							JOINT LeftHand
							{
								OFFSET 33.879036 0.000000 0.000000
								CHANNELS 3 Xrotation Yrotation Zrotation
								JOINT LeftHandThumb1
								{
									OFFSET 6.715286 -2.359680 3.363841
									CHANNELS 3 Xrotation Yrotation Zrotation
									JOINT LeftHandThumb2
									{
										OFFSET 2.507072 -1.447464 1.447461
										CHANNELS 3 Xrotation Yrotation Zrotation
										JOINT LeftHandThumb3
										{
											OFFSET 2.898338 -1.673355 1.673357
											CHANNELS 3 Xrotation Yrotation Zrotation
											End Site
											{
												OFFSET -0.295959 3.727692 -0.131651
											}
										}
									}
								}
								JOINT LeftHandIndex1
								{
									OFFSET 14.190811 -0.254547 3.840278
									CHANNELS 3 Xrotation Yrotation Zrotation
									JOINT LeftHandIndex2
									{
										OFFSET 3.551727 0.000000 -0.000000
										CHANNELS 3 Xrotation Yrotation Zrotation
										JOINT LeftHandIndex3
										{
											OFFSET 2.894196 0.000000 0.000000
											CHANNELS 3 Xrotation Yrotation Zrotation
											End Site
											{
												OFFSET -1.000603 2.690872 0.366626
											}
										}
									}
								}
								JOINT LeftHandMiddle1
								{
									OFFSET 13.776489 0.000000 0.000000
									CHANNELS 3 Xrotation Yrotation Zrotation
									JOINT LeftHandMiddle2
									{
										OFFSET 3.438232 0.000000 0.000000
										CHANNELS 3 Xrotation Yrotation Zrotation
										JOINT LeftHandMiddle3
										{
											OFFSET 3.691551 0.000000 0.000000
											CHANNELS 3 Xrotation Yrotation Zrotation
											End Site
											{
												OFFSET -1.082298 3.499527 0.457670
											}
										}
									}
								}
								JOINT LeftHandRing1
								{
									OFFSET 13.966164 -0.268127 -3.067488
									CHANNELS 3 Xrotation Yrotation Zrotation
									JOINT LeftHandRing2
									{
										OFFSET 3.162567 0.000000 0.000000
										CHANNELS 3 Xrotation Yrotation Zrotation
										JOINT LeftHandRing3
										{
											OFFSET 3.324348 0.000000 0.000000
											CHANNELS 3 Xrotation Yrotation Zrotation
											End Site
											{
												OFFSET -0.861900 3.184998 0.405154
											}
										}
									}
								}
								JOINT LeftHandPinky1
								{
									OFFSET 13.131393 -0.168503 -5.746925
									CHANNELS 3 Xrotation Yrotation Zrotation
									JOINT LeftHandPinky2
									{
										OFFSET 2.849182 0.000000 0.000000
										CHANNELS 3 Xrotation Yrotation Zrotation
										JOINT LeftHandPinky3
										{
											OFFSET 2.805038 0.000000 0.000000
											CHANNELS 3 Xrotation Yrotation Zrotation
											End Site
											{
												OFFSET -0.882500 2.642609 0.325652
											}
										}
									}
								}
							}
							JOINT Left_Sleeve
							{
								OFFSET 6.592125 -0.646545 0.805568
								CHANNELS 3 Xrotation Yrotation Zrotation
								End Site
								{
									OFFSET -0.000179 20.275787 -0.000000
								}
							}
						}
					}
				}
				JOINT RightShoulder
				{
					OFFSET -5.731700 15.108002 -2.763700
					CHANNELS 3 Xrotation Yrotation Zrotation
					JOINT RightArm
					{
						OFFSET -9.825497 2.506317 -1.597400
						CHANNELS 3 Xrotation Yrotation Zrotation
						JOINT RightForeArm
						{
							OFFSET -21.966242 0.000000 0.000000
							CHANNELS 3 Xrotation Yrotation Zrotation
							JOINT RightHand
							{
								OFFSET -33.879032 0.000000 0.000000
								CHANNELS 3 Xrotation Yrotation Zrotation
								JOINT RightHandThumb1
								{
									OFFSET -6.715286 -2.359680 3.363841
									CHANNELS 3 Xrotation Yrotation Zrotation
									JOINT RightHandThumb2
									{
										OFFSET -2.507072 -1.447464 1.447461
										CHANNELS 3 Xrotation Yrotation Zrotation
										JOINT RightHandThumb3
										{
											OFFSET -2.898338 -1.673355 1.673357
											CHANNELS 3 Xrotation Yrotation Zrotation
											End Site
											{
												OFFSET 0.295959 3.727692 -0.131651
											}
										}
									}
								}
								JOINT RightHandIndex1
								{
									OFFSET -14.190811 -0.254547 3.840278
									CHANNELS 3 Xrotation Yrotation Zrotation
									JOINT RightHandIndex2
									{
										OFFSET -3.551727 0.000000 -0.000000
										CHANNELS 3 Xrotation Yrotation Zrotation
										JOINT RightHandIndex3
										{
											OFFSET -2.894196 0.000000 0.000000
											CHANNELS 3 Xrotation Yrotation Zrotation
											End Site
											{
												OFFSET 1.000603 2.690872 0.366626
											}
										}
									}
								}
								JOINT RightHandMiddle1
								{
									OFFSET -13.776489 0.000000 0.000000
									CHANNELS 3 Xrotation Yrotation Zrotation
									JOINT RightHandMiddle2
									{
										OFFSET -3.438232 0.000000 0.000000
										CHANNELS 3 Xrotation Yrotation Zrotation
										JOINT RightHandMiddle3
										{
											OFFSET -3.691551 0.000000 0.000000
											CHANNELS 3 Xrotation Yrotation Zrotation
											End Site
											{
												OFFSET 1.082298 3.499527 0.457670
											}
										}
									}
								}
								JOINT RightHandRing1
								{
									OFFSET -13.966164 -0.268127 -3.067488
									CHANNELS 3 Xrotation Yrotation Zrotation
									JOINT RightHandRing2
									{
										OFFSET -3.162567 0.000000 0.000000
										CHANNELS 3 Xrotation Yrotation Zrotation
										JOINT RightHandRing3
										{
											OFFSET -3.324348 0.000000 0.000000
											CHANNELS 3 Xrotation Yrotation Zrotation
											End Site
											{
												OFFSET 0.861900 3.184998 0.405154
											}
										}
									}
								}
								JOINT RightHandPinky1
								{
									OFFSET -13.131393 -0.168503 -5.746925
									CHANNELS 3 Xrotation Yrotation Zrotation
									JOINT RightHandPinky2
									{
										OFFSET -2.849182 0.000000 0.000000
										CHANNELS 3 Xrotation Yrotation Zrotation
										JOINT RightHandPinky3
										{
											OFFSET -2.805038 0.000000 0.000000
											CHANNELS 3 Xrotation Yrotation Zrotation
											End Site
											{
												OFFSET 0.882500 2.642609 0.325652
											}
										}
									}
								}
							}
							JOINT Right_Sleeve
							{
								OFFSET -6.592125 -0.646545 0.805568
								CHANNELS 3 Xrotation Yrotation Zrotation
								End Site
								{
									OFFSET 0.000179 20.275787 -0.000000
								}
							}
						}
					}
				}
				JOINT Bind_Right_JacketString
				{
					OFFSET -3.534800 11.969597 7.200700
					CHANNELS 3 Xrotation Yrotation Zrotation
					JOINT Bind_Right_JacketString1
					{
						OFFSET -0.319900 -6.102600 2.794100
						CHANNELS 3 Xrotation Yrotation Zrotation
						End Site
						{
							OFFSET 0.000000 6.719452 0.000000
						}
					}
				}
				JOINT Bind_Left_JacketString
				{
					OFFSET 2.904800 11.969597 7.200700
					CHANNELS 3 Xrotation Yrotation Zrotation
					JOINT Bind_Left_JacketString1
					{
						OFFSET 0.364800 -5.904503 3.186800
						CHANNELS 3 Xrotation Yrotation Zrotation
						End Site
						{
							OFFSET 0.000000 6.719513 0.000000
						}
					}
				}
				JOINT HairE
				{
					OFFSET 5.915200 17.612701 -11.592200
					CHANNELS 3 Xrotation Yrotation Zrotation
					JOINT HairE1
					{
						OFFSET 0.289200 -7.171898 -1.284500
						CHANNELS 3 Xrotation Yrotation Zrotation
						End Site
						{
							OFFSET 0.000000 7.291756 0.000000
						}
					}
				}
				JOINT HairF
				{
					OFFSET -0.864800 17.612701 -11.592200
					CHANNELS 3 Xrotation Yrotation Zrotation
					JOINT HairF1
					{
						OFFSET 0.000000 -14.087097 -2.127501
						CHANNELS 3 Xrotation Yrotation Zrotation
						End Site
						{
							OFFSET 0.000000 14.246841 0.000000
						}
					}
				}
				JOINT HairG
				{
					OFFSET -8.087700 17.612701 -11.592200
					CHANNELS 3 Xrotation Yrotation Zrotation
					JOINT HairG1
					{
						OFFSET -0.293600 -6.081398 -0.910100
						CHANNELS 3 Xrotation Yrotation Zrotation
						End Site
						{
							OFFSET 0.000000 6.156120 0.000000
						}
					}
				}
			}
		}
	}
	JOINT Pouch
	{
		OFFSET 0.000000 4.394501 10.847300
		CHANNELS 3 Xrotation Yrotation Zrotation
		End Site
		{
			OFFSET 0.000000 21.880577 0.000000
		}
	}
	JOINT Bag
	{
		OFFSET -13.229000 4.813004 -0.593300
		CHANNELS 3 Xrotation Yrotation Zrotation
		End Site
		{
			OFFSET 0.000000 21.880577 0.000000
		}
	}
	JOINT OccupyGuyFacialAnim_Joint
	{
		OFFSET 1.000000 -70.206398 -1.655000
		CHANNELS 3 Xrotation Yrotation Zrotation
		End Site
		{
			OFFSET 0.000000 21.880577 0.000000
		}
	}
}
MOTION
Frames: 4
Frame Time: 0.033333
-0.627673 96.003662 268.539856 7.272263 -19.395541 13.876352 -0.000000 -0.000001 0.000000 -101.655317 -17.359172 18.877687 79.178142 -0.087604 -16.333885 0.899578 -8.518112 12.352749 -0.000002 0.000000 0.000000 0.000001 -0.000000 -0.000000 -67.581512 16.415619 2.116489 112.320221 -1.372437 5.593691 30.788492 2.216905 -0.566077 0.000000 -0.000000 0.000001 0.000002 0.000000 -0.000000 26.284537 -6.257945 -17.596227 -2.478102 0.379086 0.931924 -2.652396 0.189071 0.955680 -26.472191 6.607341 10.094129 15.061749 8.955463 -8.205215 0.000001 0.000000 -0.000000 0.000001 0.000000 -0.000000 0.000001 0.000000 0.000000 0.000001 0.000000 -0.000000 -0.000001 0.000000 0.000000 0.000001 0.000000 -0.000000 -0.000001 0.000000 0.000000 0.000001 0.000000 -0.000000 0.000001 0.000000 -0.000000 9.785130 -30.139241 30.391330 -47.573306 7.075587 3.429825 -39.505841 -63.436010 -22.378659 0.808327 -2.345556 4.208959 -4.212029 -7.549082 8.222293 2.840610 18.398156 -2.239069 0.000000 -0.000005 0.000001 13.523279 -2.385032 -1.412669 -0.152969 0.316274 -46.922426 -0.000000 0.000003 -0.000001 8.875272 -0.922153 -11.652135 0.346331 0.719944 -42.984050 0.000001 0.000003 -0.000001 6.436504 2.643434 -23.994417 0.085211 0.375138 -41.047586 0.000000 0.000002 0.000001 -5.710448 7.338244 -22.405426 0.257244 0.306177 -55.735286 -0.000000 -0.000001 -0.000001 0.000001 -0.000001 -0.000000 1.019834 1.526828 -27.815665 -64.513493 -9.765413 -9.163954 -41.615543 62.103618 27.476856 4.945100 7.481565 -17.142755 -11.115199 11.308631 -2.748343 10.457379 -38.224402 -1.713143 -0.000002 0.000000 -0.000000 11.951329 1.965882 2.528263 -0.448145 -0.366335 79.364558 0.000001 0.000003 0.000001 7.375668 -8.086783 1.554150 0.653785 -0.620024 66.841140 -0.000001 0.000001 -0.000001 6.875277 -16.253277 3.875031 0.425048 -0.304784 71.978166 0.000001 -0.000000 -0.000003 9.601004 -22.912329 17.329273 0.383539 -0.169638 88.190194 -0.000001 0.000000 0.000001 0.000000 -0.000001 -0.000002 -0.000001 -0.000000 -0.000000 -0.000001 -0.000000 0.000001 -0.000001 -0.000000 -0.000000 -0.000001 -0.000000 -0.000000 -0.000001 -0.000000 -0.000000 -0.000001 -0.000000 0.000000 -0.000001 -0.000000 -0.000000 -0.000001 -0.000000 -0.000000 -0.000001 -0.000000 -0.000000 -0.000001 -0.000000 0.000000 -0.000000 -0.000001 0.000000 -0.000000 -0.000001 0.000000 -0.000000 -0.000001 0.000000 
-0.390625 97.214760 276.502960 6.775184 -19.800222 12.221766 -0.000000 -0.000000 -0.000000 -93.964101 -7.571809 23.529022 63.105887 -4.306354 -14.695750 7.175582 -8.449711 13.318337 0.000001 0.000000 0.000000 0.000000 0.000001 -0.000000 -86.273636 9.643896 7.192099 123.301020 -3.866674 -0.158350 26.176702 1.802125 -3.717476 -0.000000 -0.000000 0.000002 -0.000000 0.000000 0.000000 30.422550 -6.186734 -13.163440 -1.580246 -0.365822 -0.548768 -1.534223 -0.591564 -0.530246 -27.687147 7.450830 9.229819 14.465692 9.145348 -10.305457 -0.000001 0.000000 -0.000000 -0.000001 0.000000 -0.000000 -0.000001 0.000000 -0.000000 -0.000001 0.000000 0.000000 -0.000001 0.000000 0.000000 -0.000001 0.000000 0.000000 -0.000001 0.000000 0.000000 -0.000001 0.000000 -0.000000 -0.000001 0.000000 -0.000000 13.109533 -28.685995 31.099603 -52.331796 9.002571 7.190127 -39.338314 -62.901944 -19.205025 1.291572 -2.895444 4.874319 -4.212030 -7.549086 8.222288 2.840637 18.398103 -2.239124 -0.000001 0.000001 -0.000004 13.547947 -2.396777 1.570725 -0.157136 0.313322 -42.924020 0.000000 -0.000001 -0.000000 8.873041 -0.941007 -9.352486 0.336184 0.706939 -40.000938 0.000002 -0.000001 -0.000001 6.422295 2.641314 -22.171043 0.076380 0.364691 -38.747728 -0.000001 0.000001 -0.000002 -5.758410 7.348574 -20.920320 0.250256 0.300793 -53.912333 -0.000001 -0.000001 -0.000001 -0.000003 0.000002 -0.000002 2.390408 3.324188 -25.148649 -67.547798 -12.962156 -14.294916 -43.876384 61.582823 31.258972 7.855241 7.070479 -20.373797 -13.349211 13.302808 -1.029943 10.193770 -39.301957 -3.507047 -0.000001 0.000000 -0.000000 11.351845 3.204475 -6.919119 -0.350654 -0.178071 63.928740 -0.000000 0.000002 0.000002 5.915550 -9.396906 -8.184656 0.516640 -0.646232 55.416432 0.000003 -0.000004 -0.000005 5.504977 -18.570480 -3.676312 0.322432 -0.314074 65.485210 -0.000001 0.000001 0.000000 10.157347 -26.440767 12.829744 0.332031 -0.173821 83.525878 0.000001 0.000002 -0.000003 -0.000001 0.000001 0.000002 -0.000003 0.000001 -0.000000 -0.000000 -0.000001 0.000001 -0.000003 0.000001 -0.000000 -0.000003 0.000001 -0.000000 -0.000003 0.000001 -0.000000 -0.000000 -0.000001 0.000001 -0.000003 0.000001 -0.000000 -0.000003 0.000001 -0.000000 -0.000003 0.000001 -0.000000 -0.000000 -0.000001 0.000001 -0.000000 -0.000000 -0.000000 -0.000000 -0.000000 -0.000000 -0.000000 -0.000000 -0.000000 
-0.208716 97.530373 284.739532 5.102476 -20.817230 9.936366 -0.000000 0.000001 -0.000000 -79.000611 -2.696349 24.138636 45.180086 2.002210 -13.605637 14.448048 -12.462828 10.559974 0.000001 0.000001 -0.000003 -0.000001 -0.000001 -0.000000 -101.169493 4.629731 9.269730 128.594103 -8.643892 -3.066827 19.237837 3.341875 -1.719036 0.000002 -0.000000 0.000001 -0.000000 0.000000 0.000001 38.069675 -6.042251 -9.730334 -2.420178 -0.860036 -1.129465 -2.353252 -1.137205 -0.973399 -26.841687 8.423071 9.125946 11.188596 9.601398 -12.410867 0.000002 0.000000 0.000000 0.000002 0.000000 0.000000 0.000002 0.000000 -0.000000 0.000002 0.000000 0.000000 0.000002 0.000000 -0.000000 0.000002 0.000000 0.000000 0.000002 0.000000 -0.000000 0.000002 0.000000 0.000000 0.000002 0.000000 0.000000 14.887476 -27.812701 31.417870 -54.988053 11.458511 10.853705 -39.187380 -62.233098 -17.671803 -0.488254 -4.505837 6.171291 -4.212030 -7.549084 8.222288 2.840629 18.398095 -2.239091 -0.000001 -0.000002 -0.000001 13.561855 -2.401929 2.767346 -0.159106 0.311989 -41.244026 0.000002 -0.000002 -0.000000 8.872392 -0.948866 -8.457905 0.332514 0.701555 -38.804545 0.000000 0.000000 0.000001 6.416087 2.640863 -21.476895 0.073026 0.360561 -37.853106 -0.000001 0.000001 -0.000003 -5.778944 7.352948 -20.363813 0.247682 0.298603 -53.218375 -0.000001 -0.000003 -0.000001 0.000002 -0.000003 0.000003 3.703357 4.950849 -23.356552 -71.002733 -15.321426 -19.909310 -46.322562 60.760734 35.158996 10.657703 6.724051 -23.315356 -14.203302 14.028875 -0.342299 10.090566 -39.707896 -4.196135 -0.000000 -0.000001 0.000001 11.253378 3.760937 -10.703296 -0.291800 -0.117472 57.443298 -0.000003 -0.000001 -0.000002 5.210177 -9.828555 -11.991054 0.462582 -0.642537 50.834096 0.000000 0.000000 -0.000001 4.800928 -19.426839 -6.585409 0.282336 -0.312087 62.959516 -0.000000 0.000001 0.000000 10.212916 -27.821647 11.143689 0.312829 -0.173314 81.778825 -0.000000 0.000001 -0.000003 -0.000000 0.000003 0.000002 -0.000002 -0.000000 0.000001 0.000001 0.000000 -0.000002 -0.000002 -0.000000 0.000000 -0.000002 -0.000000 0.000000 -0.000002 -0.000000 0.000001 0.000001 0.000000 -0.000001 -0.000002 -0.000000 0.000000 -0.000002 -0.000000 0.000000 -0.000002 -0.000000 0.000001 0.000001 0.000000 -0.000001 -0.000000 0.000001 -0.000000 -0.000000 0.000001 -0.000000 -0.000000 0.000001 -0.000000 
-0.208716 97.530373 284.739532 5.102476 -20.817230 9.936366 -0.000000 0.000001 -0.000000 -79.000611 -2.696349 24.138636 45.180086 2.002210 -13.605637 14.448048 -12.462828 10.559974 0.000001 0.000001 -0.000003 -0.000001 -0.000001 -0.000000 -101.169493 4.629731 9.269730 128.594103 -8.643892 -3.066827 19.237837 3.341875 -1.719036 0.000002 -0.000000 0.000001 -0.000000 0.000000 0.000001 38.069675 -6.042251 -9.730334 -2.420178 -0.860036 -1.129465 -2.353252 -1.137205 -0.973399 -26.841687 8.423071 9.125946 11.188596 9.601398 -12.410867 0.000002 0.000000 0.000000 0.000002 0.000000 0.000000 0.000002 0.000000 -0.000000 0.000002 0.000000 0.000000 0.000002 0.000000 -0.000000 0.000002 0.000000 0.000000 0.000002 0.000000 -0.000000 0.000002 0.000000 0.000000 0.000002 0.000000 0.000000 14.887476 -27.812701 31.417870 -54.988053 11.458511 10.853705 -39.187380 -62.233098 -17.671803 -0.488254 -4.505837 6.171291 -4.212030 -7.549084 8.222288 2.840629 18.398095 -2.239091 -0.000001 -0.000002 -0.000001 13.561855 -2.401929 2.767346 -0.159106 0.311989 -41.244026 0.000002 -0.000002 -0.000000 8.872392 -0.948866 -8.457905 0.332514 0.701555 -38.804545 0.000000 0.000000 0.000001 6.416087 2.640863 -21.476895 0.073026 0.360561 -37.853106 -0.000001 0.000001 -0.000003 -5.778944 7.352948 -20.363813 0.247682 0.298603 -53.218375 -0.000001 -0.000003 -0.000001 0.000002 -0.000003 0.000003 3.703357 4.950849 -23.356552 -71.002733 -15.321426 -19.909310 -46.322562 60.760734 35.158996 10.657703 6.724051 -23.315356 -14.203302 14.028875 -0.342299 10.090566 -39.707896 -4.196135 -0.000000 -0.000001 0.000001 11.253378 3.760937 -10.703296 -0.291800 -0.117472 57.443298 -0.000003 -0.000001 -0.000002 5.210177 -9.828555 -11.991054 0.462582 -0.642537 50.834096 0.000000 0.000000 -0.000001 4.800928 -19.426839 -6.585409 0.282336 -0.312087 62.959516 -0.000000 0.000001 0.000000 10.212916 -27.821647 11.143689 0.312829 -0.173314 81.778825 -0.000000 0.000001 -0.000003 -0.000000 0.000003 0.000002 -0.000002 -0.000000 0.000001 0.000001 0.000000 -0.000002 -0.000002 -0.000000 0.000000 -0.000002 -0.000000 0.000000 -0.000002 -0.000000 0.000001 0.000001 0.000000 -0.000001 -0.000002 -0.000000 0.000000 -0.000002 -0.000000 0.000000 -0.000002 -0.000000 0.000001 0.000001 0.000000 -0.000001 -0.000000 0.000001 -0.000000 -0.000000 0.000001 -0.000000 -0.000000 0.000001 -0.000000 
